<svg width="40" height="40" viewBox="0 0 48 48" fill="none" xmlns="http://www.w3.org/2000/svg">
<rect width="48" height="48" rx="8.88889" fill="white"/>]
<!-- <img src="https://icons8.com/icon/i6fZC6wuprSu/home" > -->
<!-- <path d="M44.752,20.914L25.935,2.094c-0.781-0.781-1.842-1.22-2.946-1.22c-1.105,0-2.166,0.439-2.947,1.22L1.221,20.914 c-1.191,1.191-1.548,2.968-0.903,4.525c0.646,1.557,2.165,2.557,3.85,2.557h2.404v13.461c0,2.013,1.607,3.642,3.621,3.642h3.203 V32.93c0-0.927,0.766-1.651,1.692-1.651h6.223c0.926,0,1.673,0.725,1.673,1.651v12.168h12.799c2.013,0,3.612-1.629,3.612-3.642 V27.996h2.411c1.685,0,3.204-1,3.85-2.557C46.3,23.882,45.944,22.106,44.752,20.914z" fill="url(#paint0_linear_1545_39)"/> -->
<path d="M 23.951172 4 A 1.50015 1.50015 0 0 0 23.072266 4.3222656 L 8.859375 15.519531 C 7.0554772 16.941163 6 19.113506 6 21.410156 L 6 40.5 C 6 41.863594 7.1364058 43 8.5 43 L 18.5 43 C 19.863594 43 21 41.863594 21 40.5 L 21 30.5 C 21 30.204955 21.204955 30 21.5 30 L 26.5 30 C 26.795045 30 27 30.204955 27 30.5 L 27 40.5 C 27 41.863594 28.136406 43 29.5 43 L 39.5 43 C 40.863594 43 42 41.863594 42 40.5 L 42 21.410156 C 42 19.113506 40.944523 16.941163 39.140625 15.519531 L 24.927734 4.3222656 A 1.50015 1.50015 0 0 0 23.951172 4 z M 24 7.4101562 L 37.285156 17.876953 C 38.369258 18.731322 39 20.030807 39 21.410156 L 39 40 L 30 40 L 30 30.5 C 30 28.585045 28.414955 27 26.5 27 L 21.5 27 C 19.585045 27 18 28.585045 18 30.5 L 18 40 L 9 40 L 9 21.410156 C 9 20.030807 9.6307412 18.731322 10.714844 17.876953 L 24 7.4101562 z" fill="url(#paint0_linear_1545_39)"></path>
<defs>
<linearGradient id="paint0_linear_1545_39" x1="8" y1="35.5" x2="38.0109" y2="10.5484" gradientUnits="userSpaceOnUse">
<stop stop-color="#989FFF"/>
<stop offset="1" stop-color="#29A2FF"/>
</linearGradient>
</defs>
</svg>


